<mxfile host="app.diagrams.net" modified="2023-05-27T16:38:54.189Z" agent="Mozilla/5.0 (Windows NT 10.0; Win64; x64) AppleWebKit/537.36 (KHTML, like Gecko) Chrome/113.0.0.0 Safari/537.36" etag="hMj4x0Xd_f-jLHXgH3Gf" version="21.3.4" type="device">
  <diagram id="C5RBs43oDa-KdzZeNtuy" name="Page-1">
    <mxGraphModel dx="2330" dy="1048" grid="1" gridSize="10" guides="1" tooltips="1" connect="1" arrows="1" fold="1" page="1" pageScale="1" pageWidth="827" pageHeight="1169" math="0" shadow="0">
      <root>
        <mxCell id="WIyWlLk6GJQsqaUBKTNV-0" />
        <mxCell id="WIyWlLk6GJQsqaUBKTNV-1" parent="WIyWlLk6GJQsqaUBKTNV-0" />
        <mxCell id="WsLRXznDXkNSL2wcpVCU-4" value="" style="edgeStyle=none;curved=1;rounded=0;orthogonalLoop=1;jettySize=auto;html=1;fontSize=12;startSize=8;endSize=8;" edge="1" parent="WIyWlLk6GJQsqaUBKTNV-1" source="WsLRXznDXkNSL2wcpVCU-0" target="WsLRXznDXkNSL2wcpVCU-3">
          <mxGeometry relative="1" as="geometry" />
        </mxCell>
        <mxCell id="WsLRXznDXkNSL2wcpVCU-0" value="Borrow Book" style="rounded=1;whiteSpace=wrap;html=1;fontSize=16;" vertex="1" parent="WIyWlLk6GJQsqaUBKTNV-1">
          <mxGeometry x="294" y="100" width="120" height="60" as="geometry" />
        </mxCell>
        <mxCell id="WsLRXznDXkNSL2wcpVCU-7" value="" style="edgeStyle=none;curved=1;rounded=0;orthogonalLoop=1;jettySize=auto;html=1;fontSize=12;startSize=8;endSize=8;" edge="1" parent="WIyWlLk6GJQsqaUBKTNV-1" source="WsLRXznDXkNSL2wcpVCU-3" target="WsLRXznDXkNSL2wcpVCU-6">
          <mxGeometry relative="1" as="geometry" />
        </mxCell>
        <mxCell id="WsLRXznDXkNSL2wcpVCU-3" value="Send Request to Librarian for approval" style="whiteSpace=wrap;html=1;fontSize=16;rounded=1;" vertex="1" parent="WIyWlLk6GJQsqaUBKTNV-1">
          <mxGeometry x="294" y="280" width="120" height="60" as="geometry" />
        </mxCell>
        <mxCell id="WsLRXznDXkNSL2wcpVCU-9" value="" style="edgeStyle=none;curved=1;rounded=0;orthogonalLoop=1;jettySize=auto;html=1;fontSize=12;startSize=8;endSize=8;" edge="1" parent="WIyWlLk6GJQsqaUBKTNV-1" source="WsLRXznDXkNSL2wcpVCU-6" target="WsLRXznDXkNSL2wcpVCU-8">
          <mxGeometry relative="1" as="geometry" />
        </mxCell>
        <mxCell id="WsLRXznDXkNSL2wcpVCU-11" value="" style="edgeStyle=none;curved=1;rounded=0;orthogonalLoop=1;jettySize=auto;html=1;fontSize=12;startSize=8;endSize=8;" edge="1" parent="WIyWlLk6GJQsqaUBKTNV-1" source="WsLRXznDXkNSL2wcpVCU-6" target="WsLRXznDXkNSL2wcpVCU-10">
          <mxGeometry relative="1" as="geometry" />
        </mxCell>
        <mxCell id="WsLRXznDXkNSL2wcpVCU-6" value="Approved?" style="rhombus;whiteSpace=wrap;html=1;fontSize=16;rounded=1;" vertex="1" parent="WIyWlLk6GJQsqaUBKTNV-1">
          <mxGeometry x="314" y="450" width="80" height="80" as="geometry" />
        </mxCell>
        <mxCell id="WsLRXznDXkNSL2wcpVCU-16" value="" style="edgeStyle=none;curved=1;rounded=0;orthogonalLoop=1;jettySize=auto;html=1;fontSize=12;startSize=8;endSize=8;" edge="1" parent="WIyWlLk6GJQsqaUBKTNV-1" source="WsLRXznDXkNSL2wcpVCU-8" target="WsLRXznDXkNSL2wcpVCU-15">
          <mxGeometry relative="1" as="geometry" />
        </mxCell>
        <mxCell id="WsLRXznDXkNSL2wcpVCU-8" value="Mark Book boolean FALSE in Database" style="whiteSpace=wrap;html=1;fontSize=16;rounded=1;" vertex="1" parent="WIyWlLk6GJQsqaUBKTNV-1">
          <mxGeometry x="494" y="460" width="120" height="60" as="geometry" />
        </mxCell>
        <mxCell id="WsLRXznDXkNSL2wcpVCU-18" style="edgeStyle=none;curved=1;rounded=0;orthogonalLoop=1;jettySize=auto;html=1;entryX=0.5;entryY=0;entryDx=0;entryDy=0;fontSize=12;startSize=8;endSize=8;" edge="1" parent="WIyWlLk6GJQsqaUBKTNV-1" source="WsLRXznDXkNSL2wcpVCU-10" target="WsLRXznDXkNSL2wcpVCU-17">
          <mxGeometry relative="1" as="geometry" />
        </mxCell>
        <mxCell id="WsLRXznDXkNSL2wcpVCU-10" value="Mark Book boolean TRUE in Database" style="whiteSpace=wrap;html=1;fontSize=16;rounded=1;" vertex="1" parent="WIyWlLk6GJQsqaUBKTNV-1">
          <mxGeometry x="94" y="460" width="120" height="60" as="geometry" />
        </mxCell>
        <mxCell id="WsLRXznDXkNSL2wcpVCU-12" value="false" style="text;html=1;strokeColor=none;fillColor=none;align=center;verticalAlign=middle;whiteSpace=wrap;rounded=0;fontSize=16;" vertex="1" parent="WIyWlLk6GJQsqaUBKTNV-1">
          <mxGeometry x="234" y="460" width="60" height="30" as="geometry" />
        </mxCell>
        <mxCell id="WsLRXznDXkNSL2wcpVCU-13" value="true" style="text;html=1;strokeColor=none;fillColor=none;align=center;verticalAlign=middle;whiteSpace=wrap;rounded=0;fontSize=16;" vertex="1" parent="WIyWlLk6GJQsqaUBKTNV-1">
          <mxGeometry x="414" y="460" width="60" height="30" as="geometry" />
        </mxCell>
        <mxCell id="WsLRXznDXkNSL2wcpVCU-15" value="Students can&#39;t Borrow this Book anymore" style="whiteSpace=wrap;html=1;fontSize=16;rounded=1;" vertex="1" parent="WIyWlLk6GJQsqaUBKTNV-1">
          <mxGeometry x="494" y="640" width="120" height="60" as="geometry" />
        </mxCell>
        <mxCell id="WsLRXznDXkNSL2wcpVCU-20" style="edgeStyle=none;curved=1;rounded=0;orthogonalLoop=1;jettySize=auto;html=1;entryX=0;entryY=0.5;entryDx=0;entryDy=0;fontSize=12;startSize=8;endSize=8;exitX=0;exitY=0.5;exitDx=0;exitDy=0;" edge="1" parent="WIyWlLk6GJQsqaUBKTNV-1" source="WsLRXznDXkNSL2wcpVCU-17" target="WsLRXznDXkNSL2wcpVCU-3">
          <mxGeometry relative="1" as="geometry">
            <Array as="points">
              <mxPoint x="10" y="530" />
              <mxPoint x="10" y="400" />
              <mxPoint x="150" y="300" />
            </Array>
          </mxGeometry>
        </mxCell>
        <mxCell id="WsLRXznDXkNSL2wcpVCU-17" value="Students can borrow this book anytime" style="whiteSpace=wrap;html=1;fontSize=16;rounded=1;" vertex="1" parent="WIyWlLk6GJQsqaUBKTNV-1">
          <mxGeometry x="94" y="640" width="120" height="60" as="geometry" />
        </mxCell>
      </root>
    </mxGraphModel>
  </diagram>
</mxfile>
